<?xml version="1.0" encoding="iso-8859-1"?>
<!-- Generator: Adobe Illustrator 19.0.0, SVG Export Plug-In . SVG Version: 6.00 Build 0)  -->
<svg version="1.1" id="Layer_1" xmlns="http://www.w3.org/2000/svg" xmlns:xlink="http://www.w3.org/1999/xlink" x="0px" y="0px"
	 viewBox="0 0 451.296 451.296" style="enable-background:new 0 0 451.296 451.296;" xml:space="preserve">
<circle style="fill:#334D5C;" cx="225.638" cy="225.638" r="225.638"/>
<path style="opacity:0.1;enable-background:new    ;" d="M451.296,225.638c0-4.579-0.178-9.113-0.447-13.625L344.015,105.179
	c-5.971-5.5-13.869-8.838-22.566-8.838H129.828c-18.476,0-33.473,14.997-33.473,33.473v191.621c0,9.073,3.62,17.3,9.496,23.318
	l106.092,106.092c4.534,0.272,9.093,0.452,13.695,0.452C350.266,451.296,451.296,350.265,451.296,225.638z"/>
<path style="fill:#E1E6E9;" d="M321.448,96.355H129.829c-18.487,0-33.473,14.986-33.473,33.473v191.62
	c0,18.487,14.986,33.473,33.473,33.473h191.619c18.487,0,33.474-14.986,33.474-33.473v-191.62
	C354.921,111.342,339.935,96.355,321.448,96.355z"/>
<rect x="96.353" y="183.127" style="fill:#E56353;" width="258.56" height="85.023"/>
<circle style="fill:#D5D6DB;" cx="225.638" cy="230.359" r="85.012"/>
<circle style="fill:#FFFFFF;" cx="225.638" cy="225.638" r="85.012"/>
<circle style="fill:#3A556A;" cx="225.638" cy="225.638" r="63.34"/>
<circle style="fill:#64798A;" cx="225.638" cy="225.638" r="53.417"/>
<circle style="fill:#3A556A;" cx="225.638" cy="225.638" r="44.785"/>
<circle style="fill:#2F4859;" cx="225.638" cy="225.638" r="23.465"/>
<circle style="fill:#64798A;" cx="238.971" cy="212.326" r="10.132"/>
<circle style="fill:#E56353;" cx="319.59" cy="131.686" r="11.827"/>
<g>
</g>
<g>
</g>
<g>
</g>
<g>
</g>
<g>
</g>
<g>
</g>
<g>
</g>
<g>
</g>
<g>
</g>
<g>
</g>
<g>
</g>
<g>
</g>
<g>
</g>
<g>
</g>
<g>
</g>
</svg>
